<mxfile host="app.diagrams.net" modified="2023-06-03T10:28:03.155Z" agent="Mozilla/5.0 (Windows NT 10.0; Win64; x64) AppleWebKit/537.36 (KHTML, like Gecko) Chrome/114.0.0.0 Safari/537.36" etag="TEIw1z8GZOTxYje6QJZf" version="21.3.7" type="device">
  <diagram id="acQfhdTQMB0j-hMExmch" name="Seite-1">
    <mxGraphModel dx="1221" dy="743" grid="1" gridSize="10" guides="1" tooltips="1" connect="1" arrows="1" fold="1" page="1" pageScale="1" pageWidth="827" pageHeight="1169" math="0" shadow="0">
      <root>
        <mxCell id="0" />
        <mxCell id="1" parent="0" />
        <mxCell id="_5wFJFhmAABHagyHOUvu-7" value="1" style="edgeStyle=orthogonalEdgeStyle;rounded=0;orthogonalLoop=1;jettySize=auto;html=1;endArrow=none;endFill=0;" parent="1" source="_5wFJFhmAABHagyHOUvu-1" target="_5wFJFhmAABHagyHOUvu-5" edge="1">
          <mxGeometry relative="1" as="geometry" />
        </mxCell>
        <mxCell id="_5wFJFhmAABHagyHOUvu-9" style="rounded=0;orthogonalLoop=1;jettySize=auto;html=1;entryX=0;entryY=0.5;entryDx=0;entryDy=0;endArrow=none;endFill=0;" parent="1" source="_5wFJFhmAABHagyHOUvu-1" target="_5wFJFhmAABHagyHOUvu-8" edge="1">
          <mxGeometry relative="1" as="geometry" />
        </mxCell>
        <mxCell id="_5wFJFhmAABHagyHOUvu-1" value="Domain" style="rounded=0;whiteSpace=wrap;html=1;" parent="1" vertex="1">
          <mxGeometry x="354" y="160" width="120" height="60" as="geometry" />
        </mxCell>
        <mxCell id="_5wFJFhmAABHagyHOUvu-6" value="N" style="edgeStyle=orthogonalEdgeStyle;rounded=0;orthogonalLoop=1;jettySize=auto;html=1;endArrow=none;endFill=0;" parent="1" source="_5wFJFhmAABHagyHOUvu-2" target="_5wFJFhmAABHagyHOUvu-5" edge="1">
          <mxGeometry relative="1" as="geometry" />
        </mxCell>
        <mxCell id="_5wFJFhmAABHagyHOUvu-18" value="N" style="edgeStyle=orthogonalEdgeStyle;rounded=0;orthogonalLoop=1;jettySize=auto;html=1;endArrow=none;endFill=0;" parent="1" source="_5wFJFhmAABHagyHOUvu-2" target="_5wFJFhmAABHagyHOUvu-17" edge="1">
          <mxGeometry relative="1" as="geometry" />
        </mxCell>
        <mxCell id="_5wFJFhmAABHagyHOUvu-24" style="rounded=0;orthogonalLoop=1;jettySize=auto;html=1;entryX=0;entryY=0.5;entryDx=0;entryDy=0;endArrow=none;endFill=0;" parent="1" source="_5wFJFhmAABHagyHOUvu-2" target="_5wFJFhmAABHagyHOUvu-23" edge="1">
          <mxGeometry relative="1" as="geometry" />
        </mxCell>
        <mxCell id="_5wFJFhmAABHagyHOUvu-2" value="Explanation" style="rounded=0;whiteSpace=wrap;html=1;" parent="1" vertex="1">
          <mxGeometry x="354" y="330" width="120" height="60" as="geometry" />
        </mxCell>
        <mxCell id="_5wFJFhmAABHagyHOUvu-5" value="from" style="rhombus;whiteSpace=wrap;html=1;" parent="1" vertex="1">
          <mxGeometry x="374" y="250" width="80" height="50" as="geometry" />
        </mxCell>
        <mxCell id="_5wFJFhmAABHagyHOUvu-8" value="name" style="ellipse;whiteSpace=wrap;html=1;" parent="1" vertex="1">
          <mxGeometry x="530" y="140" width="60" height="40" as="geometry" />
        </mxCell>
        <mxCell id="_5wFJFhmAABHagyHOUvu-14" value="1" style="rounded=0;orthogonalLoop=1;jettySize=auto;html=1;endArrow=none;endFill=0;" parent="1" source="_5wFJFhmAABHagyHOUvu-10" target="_5wFJFhmAABHagyHOUvu-13" edge="1">
          <mxGeometry relative="1" as="geometry" />
        </mxCell>
        <mxCell id="_5wFJFhmAABHagyHOUvu-20" value="N" style="edgeStyle=orthogonalEdgeStyle;rounded=0;orthogonalLoop=1;jettySize=auto;html=1;entryX=0;entryY=0.5;entryDx=0;entryDy=0;endArrow=none;endFill=0;" parent="1" source="_5wFJFhmAABHagyHOUvu-10" target="_5wFJFhmAABHagyHOUvu-15" edge="1">
          <mxGeometry relative="1" as="geometry" />
        </mxCell>
        <mxCell id="_5wFJFhmAABHagyHOUvu-10" value="builds on" style="rhombus;whiteSpace=wrap;html=1;" parent="1" vertex="1">
          <mxGeometry x="250" y="505" width="80" height="50" as="geometry" />
        </mxCell>
        <mxCell id="_5wFJFhmAABHagyHOUvu-22" value="is-a" style="edgeStyle=orthogonalEdgeStyle;rounded=0;orthogonalLoop=1;jettySize=auto;html=1;entryX=0.25;entryY=1;entryDx=0;entryDy=0;endArrow=block;endFill=0;" parent="1" source="_5wFJFhmAABHagyHOUvu-13" target="_5wFJFhmAABHagyHOUvu-15" edge="1">
          <mxGeometry x="0.4231" relative="1" as="geometry">
            <mxPoint as="offset" />
          </mxGeometry>
        </mxCell>
        <mxCell id="_5wFJFhmAABHagyHOUvu-13" value="Theory" style="whiteSpace=wrap;html=1;" parent="1" vertex="1">
          <mxGeometry x="230" y="600" width="120" height="60" as="geometry" />
        </mxCell>
        <mxCell id="_5wFJFhmAABHagyHOUvu-15" value="Belief" style="rounded=0;whiteSpace=wrap;html=1;" parent="1" vertex="1">
          <mxGeometry x="354" y="500" width="120" height="60" as="geometry" />
        </mxCell>
        <mxCell id="_5wFJFhmAABHagyHOUvu-19" value="1" style="edgeStyle=orthogonalEdgeStyle;rounded=0;orthogonalLoop=1;jettySize=auto;html=1;endArrow=none;endFill=0;" parent="1" source="_5wFJFhmAABHagyHOUvu-17" target="_5wFJFhmAABHagyHOUvu-15" edge="1">
          <mxGeometry relative="1" as="geometry" />
        </mxCell>
        <mxCell id="_5wFJFhmAABHagyHOUvu-17" value="by" style="rhombus;whiteSpace=wrap;html=1;" parent="1" vertex="1">
          <mxGeometry x="374" y="420" width="80" height="50" as="geometry" />
        </mxCell>
        <mxCell id="_5wFJFhmAABHagyHOUvu-23" value="date" style="ellipse;whiteSpace=wrap;html=1;" parent="1" vertex="1">
          <mxGeometry x="520" y="340" width="60" height="40" as="geometry" />
        </mxCell>
        <mxCell id="_5wFJFhmAABHagyHOUvu-25" value="parent_statement" style="ellipse;whiteSpace=wrap;html=1;" parent="1" vertex="1">
          <mxGeometry x="520" y="510" width="110" height="40" as="geometry" />
        </mxCell>
        <mxCell id="_5wFJFhmAABHagyHOUvu-26" style="rounded=0;orthogonalLoop=1;jettySize=auto;html=1;entryX=0;entryY=0.5;entryDx=0;entryDy=0;endArrow=none;endFill=0;exitX=1;exitY=0.5;exitDx=0;exitDy=0;" parent="1" source="_5wFJFhmAABHagyHOUvu-15" target="_5wFJFhmAABHagyHOUvu-25" edge="1">
          <mxGeometry relative="1" as="geometry">
            <mxPoint x="484" y="529.5" as="sourcePoint" />
            <mxPoint x="530" y="529.5" as="targetPoint" />
          </mxGeometry>
        </mxCell>
        <mxCell id="_5wFJFhmAABHagyHOUvu-27" value="Theorem" style="whiteSpace=wrap;html=1;" parent="1" vertex="1">
          <mxGeometry x="480" y="600" width="120" height="60" as="geometry" />
        </mxCell>
        <mxCell id="_5wFJFhmAABHagyHOUvu-28" value="is-a" style="edgeStyle=orthogonalEdgeStyle;rounded=0;orthogonalLoop=1;jettySize=auto;html=1;entryX=0.75;entryY=1;entryDx=0;entryDy=0;endArrow=block;endFill=0;exitX=0;exitY=0.5;exitDx=0;exitDy=0;" parent="1" source="_5wFJFhmAABHagyHOUvu-27" target="_5wFJFhmAABHagyHOUvu-15" edge="1">
          <mxGeometry x="0.434" relative="1" as="geometry">
            <mxPoint x="360" y="640" as="sourcePoint" />
            <mxPoint x="394" y="570" as="targetPoint" />
            <mxPoint as="offset" />
          </mxGeometry>
        </mxCell>
        <mxCell id="_5wFJFhmAABHagyHOUvu-30" value="theory_statement" style="ellipse;whiteSpace=wrap;html=1;" parent="1" vertex="1">
          <mxGeometry x="240" y="690" width="100" height="40" as="geometry" />
        </mxCell>
        <mxCell id="_5wFJFhmAABHagyHOUvu-31" value="proof" style="ellipse;whiteSpace=wrap;html=1;" parent="1" vertex="1">
          <mxGeometry x="492.5" y="690" width="95" height="40" as="geometry" />
        </mxCell>
        <mxCell id="_5wFJFhmAABHagyHOUvu-32" style="rounded=0;orthogonalLoop=1;jettySize=auto;html=1;entryX=0.5;entryY=0;entryDx=0;entryDy=0;endArrow=none;endFill=0;exitX=0.5;exitY=1;exitDx=0;exitDy=0;" parent="1" source="_5wFJFhmAABHagyHOUvu-13" target="_5wFJFhmAABHagyHOUvu-30" edge="1">
          <mxGeometry relative="1" as="geometry">
            <mxPoint x="290" y="700" as="sourcePoint" />
            <mxPoint x="336" y="700" as="targetPoint" />
          </mxGeometry>
        </mxCell>
        <mxCell id="_5wFJFhmAABHagyHOUvu-33" style="rounded=0;orthogonalLoop=1;jettySize=auto;html=1;entryX=0.5;entryY=0;entryDx=0;entryDy=0;endArrow=none;endFill=0;exitX=0.5;exitY=1;exitDx=0;exitDy=0;" parent="1" source="_5wFJFhmAABHagyHOUvu-27" target="_5wFJFhmAABHagyHOUvu-31" edge="1">
          <mxGeometry relative="1" as="geometry">
            <mxPoint x="537" y="700" as="sourcePoint" />
            <mxPoint x="583" y="700" as="targetPoint" />
          </mxGeometry>
        </mxCell>
        <mxCell id="GwFlAqUnzXdt7dJLLEU6-2" value="area_of_study" style="ellipse;whiteSpace=wrap;html=1;" parent="1" vertex="1">
          <mxGeometry x="530" y="200" width="100" height="40" as="geometry" />
        </mxCell>
        <mxCell id="GwFlAqUnzXdt7dJLLEU6-4" style="rounded=0;orthogonalLoop=1;jettySize=auto;html=1;entryX=0;entryY=0.5;entryDx=0;entryDy=0;endArrow=none;endFill=0;exitX=1;exitY=0.75;exitDx=0;exitDy=0;" parent="1" source="_5wFJFhmAABHagyHOUvu-1" target="GwFlAqUnzXdt7dJLLEU6-2" edge="1">
          <mxGeometry relative="1" as="geometry">
            <mxPoint x="480" y="214" as="sourcePoint" />
            <mxPoint x="536" y="200" as="targetPoint" />
          </mxGeometry>
        </mxCell>
      </root>
    </mxGraphModel>
  </diagram>
</mxfile>
